<svg xmlns="http://www.w3.org/2000/svg" xmlns:xlink="http://www.w3.org/1999/xlink" width="1000" height="1000" viewBox="0 0 1000 1000"><defs><linearGradient id="a" x1="0.279" y1="0.197" x2="0.5" y2="0.628" gradientUnits="objectBoundingBox"><stop offset="0" stop-color="#92fe9d"/><stop offset="1" stop-color="#00c9ff"/></linearGradient><clipPath id="c"><rect width="1000" height="1000"/></clipPath></defs><g id="b" clip-path="url(#c)"><text transform="translate(37 1207)" fill="#707070" font-size="206" font-family="Jost-Light, Jost" font-weight="300"><tspan x="0" y="0">easy</tspan><tspan y="0" font-family="Jost-SemiBold, Jost" font-weight="600">Cloud</tspan></text><path d="M230.452,692v-.009C102.981,690.874,0,587.722,0,460.641S102.99,230.4,230.461,229.287C231.584,102.465,335.264,0,463,0S694.413,102.465,695.535,229.287C823,230.4,926,333.555,926,460.641S823.012,690.874,695.545,691.991V692Z" transform="translate(37 154)" fill="url(#a)"/><g transform="translate(330.158 246.77)"><g transform="translate(0 0)"><g transform="translate(51.085 150.992)"><path d="M295.838,277.36c-4.705,0-9.341-2.6-12.939-7.8-49.4-71.322-129.67-71.322-179.075,0-7.127,10.3-18.752,10.3-25.879,0s-7.127-27.108,0-37.411c63.659-92.028,167.174-92.028,230.832,0,7.127,10.3,7.127,27.108,0,37.411C305.18,274.759,300.474,277.36,295.838,277.36Z" transform="translate(-72.6 -163.125)" fill="#fff"/></g><g transform="translate(99.425 283.408)"><path d="M270.451,356.269c-4.785,0-9.5-2.829-13.158-8.486-10.836-16.755-25.331-26-40.671-26s-29.835,9.248-40.671,26c-7.247,11.206-19.069,11.206-26.316,0s-7.247-29.485,0-40.691c17.873-27.635,41.656-42.867,66.987-42.867s49.114,15.232,66.987,42.976c7.248,11.206,7.248,29.484,0,40.691C280.021,353.44,275.236,356.269,270.451,356.269Z" transform="translate(-144.2 -264.225)" fill="#fff"/></g><g transform="translate(140.512 398.769)"><circle cx="31.405" cy="31.405" r="31.405" transform="translate(0 0)" fill="#fff"/></g><g transform="translate(0)"><path d="M325.388,211.217c-4.729,0-9.388-2.719-13-8.156-77.535-116.486-203.539-116.486-281,0-7.162,10.77-18.845,10.77-26.007,0s-7.162-28.337,0-39.108C49.876,97.032,108.984,60.225,171.916,60.225s122.04,36.807,166.544,103.729c7.163,10.77,7.163,28.337,0,39.108C334.775,208.5,330.047,211.217,325.388,211.217Z" transform="translate(0 -60.225)" fill="#fff"/></g></g></g></g></svg>